<svg xmlns="http://www.w3.org/2000/svg" xmlns:xlink="http://www.w3.org/1999/xlink" width="65" height="63" viewBox="0 0 65 63"><defs><clipPath id="a"><rect width="65" height="63" fill="none"/></clipPath></defs><g clip-path="url(#a)"><rect width="63" height="63" fill="none"/><path d="M64.9,57.362,51.43,44.307a26.544,26.544,0,0,0,5.714-16.615C57.145,12.264,44.491,0,28.572,0S0,12.264,0,27.692,12.653,55.384,28.572,55.384a28.533,28.533,0,0,0,17.143-5.538L59.186,62.9ZM8.164,27.692c0-11.077,8.98-19.78,20.409-19.78s20.409,8.7,20.409,19.78S40,47.472,28.572,47.472,8.164,38.769,8.164,27.692Z" fill="#fff"/></g></svg>